<?xml version="1.0" encoding="utf-8"?>
<!-- Generator: Adobe Illustrator 26.0.3, SVG Export Plug-In . SVG Version: 6.00 Build 0)  -->
<svg version="1.1" id="Layer_1" xmlns="http://www.w3.org/2000/svg" xmlns:xlink="http://www.w3.org/1999/xlink" x="0px" y="0px"
	 viewBox="0 0 1080 1080" style="enable-background:new 0 0 1080 1080;" xml:space="preserve">
<style type="text/css">
	.st0{fill:#F6970A;}
</style>
<g>
	<path class="st0" d="M816.6,316.6c0.01,6.44-3.12,10.42-6.85,14.14c-35.63,35.58-71.24,71.18-106.86,106.77
		c-49.84,49.81-99.69,99.6-149.48,149.46c-5.41,5.41-11.52,8.13-18.88,5.3c-3.1-1.19-5.95-3.57-8.35-5.96
		c-65.49-65.34-130.91-130.76-196.34-196.17c-20.24-20.23-40.5-40.45-60.7-60.73c-7.73-7.76-7.98-16.54-0.33-24.48
		c9.47-9.82,19.18-19.41,29-28.87c6.26-6.02,16.04-5.02,23.24,2.14c15.44,15.35,30.79,30.78,46.19,46.17
		c55.83,55.8,111.67,111.6,167.51,167.4c5.07,5.07,5.59,5.08,10.74-0.07c70.73-70.7,141.48-141.37,212.12-212.15
		c5.63-5.64,11.61-8.94,19.55-6.19c2.41,0.83,4.81,2.32,6.64,4.09c9.17,8.93,18.16,18.06,27.2,27.12
		C814.53,308.12,816.9,312.18,816.6,316.6z"/>
	<path class="st0" d="M263.78,530.93c-0.78-4.9,1.28-8.62,4.69-11.98c8.91-8.74,17.67-17.63,26.53-26.42
		c8.65-8.58,17.73-8.55,26.51,0.19c17.32,17.24,34.58,34.56,51.87,51.84c53.86,53.84,107.73,107.67,161.6,161.5
		c4.99,4.99,5,5,10.12-0.12c71.17-71.13,142.42-142.18,213.39-213.52c8.06-8.11,19.43-7.74,26.71,0.02
		c8.18,8.72,16.93,16.9,25.34,25.41c8.31,8.41,8.35,17.52,0.07,25.8c-85.96,85.97-171.94,171.92-257.94,257.85
		c-8.5,8.5-16.65,8.5-25.14,0.01C441.25,715.29,355,629.04,268.7,542.82C265.35,539.47,262.95,535.92,263.78,530.93z"/>
</g>
</svg>
